<svg xmlns="http://www.w3.org/2000/svg" viewBox="0 0 96 48"><title>ember-logo</title><g id="ember" fill="#e3392c"><path id="text_text--ember" data-name="text text--ember" class="cls-2" d="M66.32,31s-.44-1.57,1.21-4.59,2.94-1.37,2.94-1.37,1.41,1.53-.2,3.83A4.75,4.75,0,0,1,66.32,31ZM53.62,33.2a4.73,4.73,0,0,1-6.49,2.94s-.52-1.77,1-6.73,5-3,5-3S55.52,28.24,53.62,33.2ZM50.2,12.45S53.06,5,53.74,8.62s-6,14.43-6,14.43C47.82,20.63,50.2,12.45,50.2,12.45ZM9.29,31c.12-4.8,3.26-6.89,4.35-5.84s.69,3.3-1.37,4.72S9.29,31,9.29,31ZM96,30.23a1.1,1.1,0,0,0-1.61-1S92,31,90,30.83,88.57,26,88.57,26s.44-4.21-.77-4.56-2.7,1.1-2.7,1.1a15.16,15.16,0,0,0-2.74,4.67l-.24.08s.28-4.59,0-5.64c-.24-.52-2.46-.48-2.82.44A56.29,56.29,0,0,0,77,32.19s-3.47,2.94-6.49,3.43-3.75-1.41-3.75-1.41,8.22-2.3,7.94-8.87-6.63-4.14-7.35-3.6-4.41,2.76-5.49,9c0,.21-.1,1.13-.1,1.13a28.4,28.4,0,0,1-5,2.7s5-8.34-1.09-12.13C53,20.75,50.8,24.21,50.8,24.21S59,15.11,57.17,7.41c-.86-3.67-2.7-4.06-4.38-3.47a7.63,7.63,0,0,0-3.52,2.5A28.14,28.14,0,0,0,45.2,18.37c-.77,7.13-1.89,15.76-1.89,15.76a6,6,0,0,1-3,1.61c-1.45.08-.81-4.31-.81-4.31s1.13-6.69,1-7.82-.16-1.73-1.49-2.14-2.78,1.29-2.78,1.29-3.83,5.8-4.15,6.69l-.2.36-.2-.24s2.7-7.9.12-8-4.27,2.82-4.27,2.82-2.94,4.92-3.06,5.48l-.2-.24s1.21-5.72,1-7.13a1.29,1.29,0,0,0-1.57-1.13s-1.69-.2-2.14.89a79.77,79.77,0,0,0-2.26,10.6s-4.23,3-7,3.06-2.5-1.76-2.5-1.76S20,30.65,17.19,23.76a5.05,5.05,0,0,0-4.76-2.29c-2.06,0-4.55,1.29-6.2,5a16.09,16.09,0,0,0-1.18,4.72h0a4,4,0,0,1-2.81-.44c-1-.81-1.5,0-1.5,0s-1.67,2.09,0,2.73a20.22,20.22,0,0,0,4.22.92h0A7.77,7.77,0,0,0,7.88,39c3,2.3,8.83-.2,8.83-.2l2.38-1.33s.08,2.19,1.81,2.5,2.46,0,5.48-7.34c1.77-3.75,1.89-3.55,1.89-3.55l.2,0s-1.37,7.17-.85,9.11,2.82,1.73,2.82,1.73,1.25.21,2.26-3.34a53.06,53.06,0,0,1,2.94-7.49h.24s-.85,7.37.44,9.7,4.63.8,4.63.8A23.28,23.28,0,0,0,43.67,38,9.5,9.5,0,0,0,50.36,40c8.75-1.72,11.86-4,11.86-4a7.22,7.22,0,0,0,6.16,4.16,10.22,10.22,0,0,0,8.22-2.94,3.24,3.24,0,0,0,1.81,2.94c1.85.77,3.1-3.57,3.1-3.57l3.1-8.58h.28s.16,5.59,3.22,6.48,7.05-2.06,7.05-2.06A2.06,2.06,0,0,0,96,30.23"/></g></svg>
